# xmcd
#
# Track frame offsets: 
#        183
#        14295
#        29340
#        38975
#        51485
#        60365
#        73323
#        82040
#        103718
#        114503
#        125173
#        138373
#        158740
#        172160
#        187428
#        200220
#
# Disc length: 2834 seconds
#
# Revision: 1
# Processed by: cddbd v1.5.2PL0 Copyright (c) Steve Scherf et al.
# Submitted via: ExactAudioCopy v0.99pb5
#
DISCID=f90b1010
DTITLE=Shirley Bassey - Shirley Bassey
DYEAR=1990
DGENRE=Vocal
TTITLE0=The Look Of Love
TTITLE1=Goldfinger
TTITLE2=He Loves Me
TTITLE3=If Ever I Would Leave You
TTITLE4=A Lot Of Liven' To Do
TTITLE5=Somewhere
TTITLE6=I Could Have Danced All Night
TTITLE7=The First Time Ever (I Saw Your Face)
TTITLE8=Once In A Lifetime
TTITLE9=Who Can I Turn To
TTITLE10=What Now My Love
TTITLE11=The Second Time Around
TTITLE12=As Long As He Needs Me
TTITLE13=Everything Is Coming Up Roses
TTITLE14=People
TTITLE15=Something Wonderfun
EXTD=
EXTT0=
EXTT1=
EXTT2=
EXTT3=
EXTT4=
EXTT5=
EXTT6=
EXTT7=
EXTT8=
EXTT9=
EXTT10=
EXTT11=
EXTT12=
EXTT13=
EXTT14=
EXTT15=
PLAYORDER=
